HIERARCHY
ROOT Hips
{
	OFFSET 0.00000 0.00000 0.00000
	CHANNELS 6 Xposition Yposition Zposition Zrotation Yrotation Xrotation 
	JOINT LHipJoint
	{
		OFFSET 0 0 0
		CHANNELS 3 Zrotation Yrotation Xrotation
		JOINT LeftHip
		{
			OFFSET 1.58895 -1.83665 0.71753
			CHANNELS 3 Zrotation Yrotation Xrotation
			JOINT LeftKnee
			{
				OFFSET 2.50528 -6.88321 0.00000
				CHANNELS 3 Zrotation Yrotation Xrotation
				JOINT LeftAnkle
				{
					OFFSET 2.63244 -7.23257 0.00000
					CHANNELS 3 Zrotation Yrotation Xrotation
					JOINT LeftToe
					{
						OFFSET 0.23691 -0.65090 1.72750
						CHANNELS 3 Zrotation Yrotation Xrotation
						End Site
						{
							OFFSET 0.00000 -0.00000 0.92561
						}
					}
				}
			}
		}
	}
	JOINT RHipJoint
	{
		OFFSET 0 0 0
		CHANNELS 3 Zrotation Yrotation Xrotation
		JOINT RightHip
		{
			OFFSET -1.51435 -1.83665 0.71753
			CHANNELS 3 Zrotation Yrotation Xrotation
			JOINT RightKnee
			{
				OFFSET -2.54551 -6.99375 0.00000
				CHANNELS 3 Zrotation Yrotation Xrotation
				JOINT RightAnkle
				{
					OFFSET -2.66027 -7.30903 0.00000
					CHANNELS 3 Zrotation Yrotation Xrotation
					JOINT RightToe
					{
						OFFSET -0.22981 -0.63138 2.03959
						CHANNELS 3 Zrotation Yrotation Xrotation
						End Site
						{
							OFFSET -0.00000 -0.00000 1.07060
						}
					}
				}
			}
		}
	}
	JOINT lowerback
	{
		OFFSET 0 0 0
		CHANNELS 3 Zrotation Yrotation Xrotation
		JOINT Chest
		{
			OFFSET -0.02651 1.86275 -0.11152
			CHANNELS 3 Zrotation Yrotation Xrotation
			JOINT Chest2
			{
				OFFSET 0.01019 1.86224 0.04087
				CHANNELS 3 Zrotation Yrotation Xrotation
				JOINT lowerneck
				{
					OFFSET 0 0 0
					CHANNELS 3 Zrotation Yrotation Xrotation
					JOINT Neck
					{
						OFFSET -0.01926 1.80512 0.08867
						CHANNELS 3 Zrotation Yrotation Xrotation
						JOINT Head
						{
							OFFSET 0.05516 1.76451 -0.38475
							CHANNELS 3 Zrotation Yrotation Xrotation
							End Site
							{
								OFFSET 0.01592 1.82587 -0.14001
							}
						}
					}
				}
				JOINT LeftCollar
				{
					OFFSET 0 0 0
					CHANNELS 3 Zrotation Yrotation Xrotation
					JOINT LeftShoulder
					{
						OFFSET 3.47116 1.51376 0.14491
CHANNELS 3 Zrotation Xrotation Yrotation
						JOINT LeftElbow
						{
OFFSET 0 -4.780950 0.000000
CHANNELS 3 Zrotation Xrotation Yrotation
							JOINT LeftWrist
							{
OFFSET 0 -3.586150 -0.000000
CHANNELS 3 Zrotation Xrotation Yrotation
								JOINT lhand
								{
									OFFSET 0 0 0
CHANNELS 3 Zrotation Xrotation Yrotation
									JOINT LFingers
									{
OFFSET 0 -0.659810 0.000000
CHANNELS 3 Zrotation Xrotation Yrotation
										End Site
										{
OFFSET 0 -0.531960 0.000000
										}
									}
								}
								JOINT LThumb
								{
OFFSET 0 0.000000 0.000000
CHANNELS 3 Zrotation Xrotation Yrotation
									End Site
									{
OFFSET 0 -0.540080 0.540080
									}
								}
							}
						}
					}
				}
				JOINT RightCollar
				{
					OFFSET 0 0 0
					CHANNELS 3 Zrotation Yrotation Xrotation
					JOINT RightShoulder
					{
						OFFSET -3.31725 1.61216 0.35156
CHANNELS 3 Zrotation Xrotation Yrotation
						JOINT RightElbow
						{
OFFSET 0 -4.489130 0.000000
CHANNELS 3 Zrotation Xrotation Yrotation
							JOINT RightWrist
							{
OFFSET 0 -3.705100 0.000000
CHANNELS 3 Zrotation Xrotation Yrotation
								JOINT rhand
								{
									OFFSET 0 0 0
CHANNELS 3 Zrotation Xrotation Yrotation
									JOINT RFingers
									{
OFFSET 0 -0.449140 0.000000
CHANNELS 3 Zrotation Xrotation Yrotation
										End Site
										{
OFFSET 0 -0.362110 0.000000
										}
									}
								}
								JOINT RThumb
								{
OFFSET 0 0.000000 0.000000
CHANNELS 3 Zrotation Xrotation Yrotation
									End Site
									{
OFFSET 0 -0.367630 0.367630
									}
								}
							}
						}
					}
				}
			}
		}
	}
}
MOTION
Frames: 12
Frame Time: 0.008333333333333333
-0.809400 18.670500 6.085300 -3.072700 -0.763000 2.048100 0.000000 0.000000 0.000000 -10.696500 -5.744300 -4.276600 1.596400 7.969300 22.620900 1.637000 4.158500 -25.965800 8.464600 -16.450600 -54.219400 0.000000 0.000000 0.000000 17.570900 1.541200 8.746400 0.000000 -0.000000 0.000000 -1.049000 -5.163900 -21.864400 -0.240500 3.156300 -8.714100 0.768100 0.463100 9.572400 0.303900 0.750300 -3.623800 -0.239400 0.328300 -9.238900 -1.188400 -1.814300 -9.398200 3.019600 -2.934700 20.156600 0.915000 -1.206000 7.822800 -0.000000 0.000000 0.000000 -1.212100 14.112800 -26.971500 21.837600 -32.793000 6.497700 4.426700 9.646100 27.336000 0.000000 0.000000 0.000000 -7.125000 0.000000 0.000000 -15.264900 3.388100 -14.883000 -0.000000 0.000000 0.000000 0.872000 19.410900 24.441100 -24.883900 -36.085000 -8.221400 -6.427400 20.157400 35.128000 0.000000 0.000000 0.000000 7.125000 0.000000 -0.000000 32.324400 62.341500 -14.422400
-0.808703 18.669002 6.085351 -3.075401 -0.773095 2.084333 0.000000 0.000000 0.000000 -10.693333 -5.756726 -4.308881 1.596650 7.969949 22.622748 1.639400 4.147148 -25.977424 8.451896 -16.441747 -54.174486 0.000000 0.000000 0.000000 17.568823 1.563720 8.710519 0.000000 0.000000 0.000000 -1.051407 -5.123307 -21.860566 -0.224764 3.051745 -8.422816 0.802438 0.476355 9.558475 0.283008 0.770693 -3.633316 -0.284421 0.335475 -9.240279 -1.167138 -1.826556 -9.427589 3.096627 -2.972791 20.193133 0.932935 -1.214520 7.842103 0.000000 0.000000 0.000000 -1.060595 14.192758 -27.332039 22.027652 -33.007962 6.601070 4.213752 9.700337 26.647886 0.000000 0.000000 0.000000 -7.125000 0.000000 0.000000 -15.387904 4.069432 -14.808860 0.000000 0.000000 0.000000 0.954395 19.446247 24.274525 -24.838154 -36.038155 -8.194532 -6.371564 20.259053 34.919462 0.000000 0.000000 0.000000 7.125000 0.000000 0.000000 32.151875 62.153951 -14.194315
-0.807205 18.669595 6.084503 -3.044803 -0.793851 2.135610 0.000000 0.000000 0.000000 -10.731277 -5.767470 -4.372947 1.597197 7.971194 22.626682 1.636117 4.181579 -25.971158 8.464441 -16.450459 -54.218791 0.000000 0.000000 0.000000 17.525047 1.603481 8.654512 0.000000 0.000000 0.000000 -1.049304 -5.117821 -21.838544 -0.215532 2.989019 -8.248111 0.790771 0.495748 9.542853 0.269410 0.793940 -3.653035 -0.296320 0.346867 -9.252360 -1.171391 -1.850125 -9.434675 3.159509 -3.019475 20.238987 0.949880 -1.230550 7.860754 0.000000 0.000000 0.000000 -1.168212 14.092001 -27.044165 22.190485 -33.191671 6.689837 3.678281 10.768554 25.683087 0.000000 0.000000 0.000000 -7.125000 0.000000 0.000000 -15.702619 5.043747 -14.842070 0.000000 0.000000 0.000000 0.990773 19.511775 24.147810 -24.843718 -36.043816 -8.197752 -6.355615 20.373324 34.890630 0.000000 0.000000 0.000000 7.125000 0.000000 0.000000 32.136501 62.125937 -14.165328
-0.807006 18.670300 6.084354 -3.017879 -0.749407 2.167761 0.000000 0.000000 0.000000 -10.746491 -5.745194 -4.436613 1.597697 7.972392 22.630328 1.629661 4.149591 -25.908680 8.478846 -16.460413 -54.269611 0.000000 0.000000 0.000000 17.492291 1.567897 8.616029 0.000000 0.000000 0.000000 -1.056744 -5.065392 -21.872373 -0.198841 2.871006 -7.919824 0.754942 0.483350 9.528028 0.286337 0.773753 -3.632314 -0.254401 0.339960 -9.221899 -1.188651 -1.837786 -9.485289 3.129170 -2.991124 20.197119 0.944988 -1.221145 7.855152 0.000000 0.000000 0.000000 -1.276079 13.951280 -26.773173 22.160700 -33.158100 6.673500 3.631321 11.022934 25.670768 0.000000 0.000000 0.000000 -7.125000 0.000000 0.000000 -15.730503 5.059307 -14.865846 0.000000 0.000000 0.000000 0.919330 19.475705 24.175220 -24.846252 -36.046406 -8.199289 -6.313211 20.364038 35.082672 0.000000 0.000000 0.000000 7.125000 0.000000 0.000000 32.390444 62.274807 -14.404323
-0.805808 18.669805 6.082813 -2.998672 -0.722629 2.161292 0.000000 0.000000 0.000000 -10.770367 -5.764178 -4.430753 1.598098 7.973395 22.633285 1.631474 4.130364 -25.911548 8.481312 -16.462108 -54.278440 0.000000 0.000000 0.000000 17.458972 1.540047 8.615254 0.000000 0.000000 0.000000 -1.065153 -4.995375 -21.903475 -0.182701 2.753045 -7.591970 0.731209 0.469175 9.560555 0.299510 0.752807 -3.606681 -0.223475 0.331742 -9.213650 -1.230513 -1.809592 -9.515111 3.159118 -2.949369 20.156594 0.965634 -1.201632 7.847179 0.000000 0.000000 0.000000 -1.298490 13.862999 -26.767737 22.156740 -33.153744 6.671421 3.595910 11.045616 25.553428 0.000000 0.000000 0.000000 -7.125000 0.000000 0.000000 -15.752213 5.175071 -14.852303 0.000000 0.000000 0.000000 0.835783 19.425831 24.215586 -24.794223 -35.992935 -8.168649 -6.342923 20.401130 34.983433 0.000000 0.000000 0.000000 7.125000 0.000000 0.000000 32.250962 62.199994 -14.278207
-0.806097 18.669497 6.081069 -3.011255 -0.726612 2.165070 0.000000 0.000000 0.000000 -10.755859 -5.755875 -4.447816 1.599236 7.976116 22.641549 1.625904 4.163936 -25.888383 8.504946 -16.478360 -54.361828 0.000000 0.000000 0.000000 17.477091 1.547530 8.606723 0.000000 0.000000 0.000000 -1.061325 -5.026014 -21.887862 -0.192647 2.826488 -7.796159 0.733993 0.483265 9.543698 0.312532 0.772695 -3.573529 -0.214350 0.341956 -9.167455 -1.232933 -1.800000 -9.468612 3.175428 -2.936180 20.073732 0.972948 -1.195297 7.811210 0.000000 0.000000 0.000000 -1.285470 13.785413 -26.854541 22.168792 -33.167267 6.677936 3.572549 11.021864 25.587861 0.000000 0.000000 0.000000 -7.125000 0.000000 0.000000 -15.765782 5.143819 -14.875809 0.000000 0.000000 0.000000 0.830749 19.355206 24.143754 -24.765028 -35.962830 -8.151518 -6.306273 20.388111 34.991605 0.000000 0.000000 0.000000 7.125000 0.000000 0.000000 32.297176 62.197427 -14.299094
-0.806397 18.670092 6.077838 -3.044287 -0.728821 2.175916 0.000000 0.000000 0.000000 -10.708196 -5.737077 -4.485927 1.600883 7.980061 22.653383 1.623011 4.149947 -25.860745 8.511527 -16.482918 -54.384899 0.000000 0.000000 0.000000 17.521977 1.560311 8.579476 0.000000 0.000000 0.000000 -1.060595 -5.069404 -21.908570 -0.206681 2.927356 -8.076652 0.764335 0.488997 9.556149 0.328991 0.785828 -3.559798 -0.216203 0.347179 -9.159659 -1.192964 -1.803250 -9.426676 3.142781 -2.939068 20.013616 0.955536 -1.197764 7.782704 0.000000 0.000000 0.000000 -1.281849 13.753430 -26.933827 22.203500 -33.206251 6.696981 3.557604 10.926774 25.546191 0.000000 0.000000 0.000000 -7.125000 0.000000 0.000000 -15.774835 5.185028 -14.872341 0.000000 0.000000 0.000000 0.793605 19.300518 24.150507 -24.754050 -35.951553 -8.145087 -6.257745 20.284277 34.989565 0.000000 0.000000 0.000000 7.125000 0.000000 0.000000 32.344012 62.183415 -14.311402
-0.806504 18.669755 6.074283 -3.078647 -0.738516 2.175205 0.000000 0.000000 0.000000 -10.658398 -5.679029 -4.534263 1.603320 7.985730 22.670638 1.620928 4.117697 -25.828980 8.524709 -16.491989 -54.431481 0.000000 0.000000 0.000000 17.560302 1.575226 8.571189 0.000000 0.000000 0.000000 -1.057046 -5.079784 -21.883752 -0.209689 2.948114 -8.134335 0.778691 0.486311 9.573382 0.354497 0.786432 -3.542256 -0.197376 0.347528 -9.150767 -1.179359 -1.795241 -9.371499 3.081631 -2.915710 19.949461 0.935718 -1.192578 7.749824 0.000000 0.000000 0.000000 -1.290461 13.739374 -27.001423 22.260030 -33.269698 6.727932 3.552468 10.852436 25.491398 0.000000 0.000000 0.000000 -7.125000 0.000000 0.000000 -15.778314 5.238216 -14.859405 0.000000 0.000000 0.000000 0.733156 19.243007 24.209451 -24.751310 -35.948751 -8.143460 -6.237786 20.228192 34.952834 0.000000 0.000000 0.000000 7.125000 0.000000 0.000000 32.324047 62.147861 -14.274452
-0.806204 18.669894 6.072222 -3.081376 -0.742960 2.173864 0.000000 0.000000 0.000000 -10.660106 -5.704363 -4.535312 1.604690 7.988976 22.680722 1.621668 4.123944 -25.837487 8.490749 -16.468615 -54.311838 0.000000 0.000000 0.000000 17.567120 1.579458 8.572216 0.000000 0.000000 0.000000 -1.054034 -5.113403 -21.877408 -0.221594 3.029892 -8.361979 0.779822 0.481364 9.590512 0.362430 0.780668 -3.526664 -0.188642 0.345034 -9.143968 -1.140567 -1.783426 -9.383759 3.006632 -2.890566 19.949188 0.906829 -1.184586 7.749600 0.000000 0.000000 0.000000 -1.312571 13.720835 -26.998665 22.277350 -33.289058 6.737428 3.589463 10.848437 25.507589 0.000000 0.000000 0.000000 -7.125000 0.000000 0.000000 -15.756341 5.219651 -14.842678 0.000000 0.000000 0.000000 0.693123 19.201875 24.243820 -24.782997 -35.981383 -8.162104 -6.191064 20.196463 35.017031 0.000000 0.000000 0.000000 7.125000 0.000000 0.000000 32.441789 62.189387 -14.364316
-0.805470 18.671082 6.070784 -3.086057 -0.773229 2.191293 0.000000 0.000000 0.000000 -10.658366 -5.713203 -4.542419 1.604161 7.987779 22.676933 1.622366 4.097476 -25.829118 8.448806 -16.439641 -54.163651 0.000000 0.000000 0.000000 17.572025 1.618071 8.553310 0.000000 0.000000 0.000000 -1.045256 -5.181544 -21.842662 -0.242427 3.168353 -8.747914 0.807240 0.498200 9.589822 0.355288 0.806210 -3.523444 -0.216113 0.355508 -9.139320 -1.138785 -1.781033 -9.431994 3.022351 -2.892482 20.010038 0.911239 -1.182706 7.778805 0.000000 0.000000 0.000000 -1.330332 13.692506 -26.976972 22.235560 -33.242234 6.714565 3.662957 10.876720 25.557315 0.000000 0.000000 0.000000 -7.125000 0.000000 0.000000 -15.712451 5.165969 -14.814496 0.000000 0.000000 0.000000 0.728394 19.160241 24.192793 -24.803271 -36.002219 -8.173955 -6.156147 20.148850 35.030739 0.000000 0.000000 0.000000 7.125000 0.000000 0.000000 32.492396 62.191865 -14.391292
-0.804415 18.671500 6.067660 -3.068206 -0.795382 2.207857 0.000000 0.000000 0.000000 -10.682674 -5.722149 -4.552050 1.602145 7.983005 22.662618 1.622195 4.140791 -25.849759 8.461149 -16.448157 -54.207260 0.000000 0.000000 0.000000 17.548023 1.649342 8.529663 0.000000 0.000000 0.000000 -1.045920 -5.178391 -21.846457 -0.239898 3.151885 -8.701983 0.804300 0.504000 9.614347 0.340313 0.812735 -3.540817 -0.231885 0.358215 -9.172456 -1.148303 -1.769935 -9.417709 3.057142 -2.883540 20.031307 0.925255 -1.175843 7.783680 0.000000 0.000000 0.000000 -1.317950 13.728101 -26.988703 22.233820 -33.240212 6.713557 3.613572 10.912051 25.512942 0.000000 0.000000 0.000000 -7.125000 0.000000 0.000000 -15.742021 5.212678 -14.830249 0.000000 0.000000 0.000000 0.758662 19.154525 24.209011 -24.811535 -36.010730 -8.178900 -6.238972 20.206693 35.009746 0.000000 0.000000 0.000000 7.125000 0.000000 0.000000 32.385257 62.195487 -14.341007
-0.804264 18.671689 6.065044 -3.054097 -0.841246 2.203188 0.000000 0.000000 0.000000 -10.701381 -5.707206 -4.536422 1.598208 7.973638 22.633966 1.621828 4.155034 -25.854602 8.463320 -16.449644 -54.214764 0.000000 0.000000 0.000000 17.530758 1.695446 8.536810 0.000000 0.000000 0.000000 -1.049002 -5.167598 -21.866889 -0.226444 3.062909 -8.453959 0.783675 0.513705 9.642319 0.337618 0.823139 -3.537286 -0.225227 0.364251 -9.185154 -1.114971 -1.766618 -9.453729 3.004115 -2.875015 20.073145 0.902767 -1.173490 7.802559 0.000000 0.000000 0.000000 -1.341444 13.739513 -26.992336 22.229777 -33.235744 6.711351 3.660939 10.952534 25.490181 0.000000 0.000000 0.000000 -7.125000 0.000000 0.000000 -15.714055 5.230743 -14.796225 0.000000 0.000000 0.000000 0.734861 19.143560 24.297689 -24.828547 -36.028288 -8.188851 -6.370539 20.248398 34.923238 0.000000 0.000000 0.000000 7.125000 0.000000 0.000000 32.156886 62.156805 -14.198917
